<svg width="512" height="512" xmlns="http://www.w3.org/2000/svg">

 <title/>
 <g>
  <title>background</title>
  <rect fill="none" id="canvas_background" height="514" width="514" y="-1" x="-1"/>
 </g>
 <g>
  <title>Layer 1</title>
  <path stroke-linejoin="round" stroke-width="10px" stroke="#000000" fill="none" id="svg_1" d="m462,144l0,304l-320,0l0,-216l163.2,0a9.83,9.83 0 0 0 9.8,-9.8l0,-80.4a9.83,9.83 0 0 0 -9.8,-9.8l-163.2,0l0,-68l224,0l0,64a16,16 0 0 0 16,16l80,0z" class="cls-1"/>
  <line stroke-linejoin="round" stroke-width="10px" stroke="#000000" fill="none" id="svg_2" y2="144" y1="64" x2="462" x1="366" class="cls-1"/>
  <rect stroke-linejoin="round" stroke-width="10px" stroke="#000000" fill="none" id="svg_3" y="132" x="35" width="280" ry="9.8" rx="9.8" height="100" class="cls-1"/>
  <polyline stroke-miterlimit="10" stroke-width="10px" stroke="#000000" fill="none" id="svg_8" points="260 274 196 338 260 402" class="cls-2"/>
  <line stroke-miterlimit="10" stroke-width="10px" stroke="#000000" fill="none" id="svg_9" y2="274" y1="402" x2="324" x1="276" class="cls-2"/>
  <polyline stroke-miterlimit="10" stroke-width="10px" stroke="#000000" fill="none" id="svg_10" points="344 274 408 338 344 402" class="cls-2"/>
  <text xml:space="preserve" text-anchor="start" font-family="'Courier New', Courier, monospace" font-size="55" id="svg_11" y="198.668702" x="43.015966" fill-opacity="null" stroke-opacity="null" stroke-width="0" stroke="null" fill="#000000">VORTETTY</text>
 </g>
</svg>